<?xml version="1.0" encoding="UTF-8"?>
<svg id="Camada_1" data-name="Camada 1" xmlns="http://www.w3.org/2000/svg" viewBox="0 0 1784.04 1565.62">
  <defs>
    <style>
      .cls-1 {
        fill: #c3dff4;
      }

      .cls-2 {
        fill: #3676a1;
      }

      .cls-3 {
        fill: #004176;
      }
    </style>
  </defs>
  <path class="cls-1" d="M890.17,159.46v-88.89c-111.63,0-218.16,21.77-315.67,61.18l33.31,82.43c87.22-35.26,182.51-54.72,282.36-54.73Z"/>
  <path class="cls-1" d="M890.17,248.35v-88.89c-99.85,0-195.15,19.47-282.36,54.73l33.31,82.43c76.93-31.1,160.98-48.26,249.06-48.27Z"/>
  <path class="cls-1" d="M890.17,337.24v-88.89c-88.07,0-172.13,17.17-249.06,48.27l33.31,82.43c66.64-26.94,139.46-41.81,215.75-41.81Z"/>
  <path class="cls-3" d="M890.17,426.13v-88.89c-76.29,0-149.11,14.88-215.75,41.81l33.31,82.43c56.36-22.78,117.93-35.35,182.45-35.36Z"/>
  <path class="cls-3" d="M741.03,543.92c46.07-18.62,96.4-28.89,149.14-28.9v-88.89c-64.52,0-126.09,12.58-182.45,35.36l33.31,82.43Z"/>
  <path class="cls-2" d="M890.17,603.91v-88.89c-52.74,0-103.07,10.28-149.14,28.9l33.33,82.49c35.78-14.46,74.85-22.49,115.81-22.5Z"/>
  <path class="cls-3" d="M890.17,692.8v-88.89c-40.96,0-80.03,8.04-115.81,22.5l33.3,82.42c25.5-10.3,53.33-16.02,82.51-16.03Z"/>
  <path class="cls-3" d="M890.17,781.69v-88.89c-29.18,0-57.02,5.73-82.51,16.03l33.3,82.42c15.21-6.14,31.81-9.55,49.21-9.56Z"/>
  <path class="cls-1" d="M607.81,214.18l-33.31-82.43c-96.46,39-184.05,95.32-258.92,165.13l60.62,65.01c66.97-62.44,145.32-112.82,231.61-147.7Z"/>
  <path class="cls-1" d="M641.12,296.62l-33.31-82.43c-86.29,34.88-164.63,85.26-231.61,147.7l60.62,65.01c59.08-55.07,128.18-99.51,204.29-130.28Z"/>
  <path class="cls-1" d="M674.42,379.05l-33.31-82.43c-76.11,30.77-145.22,75.2-204.29,130.28l60.62,65.01c51.18-47.71,111.05-86.2,176.98-112.85Z"/>
  <path class="cls-3" d="M707.73,461.49l-33.31-82.43c-65.93,26.65-125.8,65.14-176.98,112.85l60.62,65.01c43.28-40.34,93.91-72.89,149.67-95.42Z"/>
  <path class="cls-3" d="M741.03,543.92l-33.31-82.43c-55.76,22.53-106.38,55.08-149.67,95.42l60.62,65.01c35.39-32.97,76.77-59.57,122.35-77.99Z"/>
  <path class="cls-2" d="M679.33,686.95c27.49-25.6,59.63-46.24,95.03-60.54l-33.33-82.49c-45.58,18.42-86.97,45.02-122.35,77.99l60.65,65.04Z"/>
  <path class="cls-3" d="M807.66,708.83l-33.3-82.42c-35.4,14.3-67.54,34.94-95.03,60.54l60.61,65c19.59-18.24,42.5-32.93,67.72-43.12Z"/>
  <path class="cls-3" d="M840.96,791.25l-33.3-82.42c-25.23,10.19-48.13,24.88-67.72,43.12l60.61,65c11.69-10.87,25.36-19.62,40.41-25.7Z"/>
  <path class="cls-3" d="M376.2,361.89l-60.62-65.01c-75.07,69.99-137.35,153.51-182.94,246.7l79.91,38.97c40.78-83.36,96.49-158.06,163.65-220.67Z"/>
  <path class="cls-3" d="M436.82,426.89l-60.62-65.01c-67.15,62.61-122.86,137.31-163.65,220.67l79.91,38.97c35.98-73.52,85.12-139.42,144.36-194.64Z"/>
  <path class="cls-3" d="M497.44,491.9l-60.62-65.01c-59.24,55.22-108.38,121.11-144.36,194.64l79.91,38.97c31.17-63.69,73.75-120.77,125.07-168.6Z"/>
  <path class="cls-2" d="M558.06,556.91l-60.62-65.01c-51.32,47.83-93.9,104.91-125.07,168.6l79.91,38.97c26.37-53.86,62.38-102.12,105.78-142.57Z"/>
  <path class="cls-2" d="M618.68,621.91l-60.62-65.01c-43.4,40.45-79.41,88.71-105.78,142.57l79.91,38.97c21.56-44.02,51.01-83.48,86.49-116.54Z"/>
  <path class="cls-3" d="M679.33,686.95l-60.65-65.04c-35.49,33.06-64.93,72.52-86.49,116.54l79.93,38.98c16.76-34.19,39.64-64.81,67.21-90.49Z"/>
  <path class="cls-3" d="M612.12,777.44l79.9,38.97c11.95-24.36,28.27-46.17,47.92-64.46l-60.61-65c-27.57,25.68-50.45,56.3-67.21,90.49Z"/>
  <path class="cls-3" d="M800.55,816.94l-60.61-65c-19.65,18.29-35.96,40.1-47.92,64.46l79.9,38.97c7.15-14.52,16.89-27.53,28.62-38.44Z"/>
  <path class="cls-3" d="M212.56,582.56l-79.91-38.97c-44.38,90.72-72.92,190.59-82.08,296.01l88.55,7.75c8.2-94.31,33.73-183.64,73.44-264.79Z"/>
  <path class="cls-3" d="M292.46,621.53l-79.91-38.97c-39.7,81.15-65.24,170.48-73.44,264.79l88.55,7.75c7.24-83.18,29.77-161.98,64.79-233.56Z"/>
  <path class="cls-3" d="M372.37,660.51l-79.91-38.97c-35.03,71.58-57.56,150.38-64.79,233.56l88.55,7.75c6.28-72.06,25.8-140.32,56.15-202.33Z"/>
  <path class="cls-2" d="M452.28,699.48l-79.91-38.97c-30.35,62.01-49.87,130.27-56.15,202.33l88.55,7.75c5.32-60.94,21.84-118.67,47.51-171.11Z"/>
  <path class="cls-2" d="M532.19,738.45l-79.91-38.97c-25.67,52.44-42.19,110.16-47.51,171.11l88.55,7.75c4.36-49.82,17.87-97.01,38.87-139.88Z"/>
  <path class="cls-3" d="M612.12,777.44l-79.93-38.98c-21,42.87-34.51,90.06-38.87,139.88l88.6,7.75c3.4-38.7,13.87-75.35,30.19-108.65Z"/>
  <path class="cls-3" d="M692.02,816.41l-79.9-38.97c-16.32,33.29-26.8,69.95-30.19,108.65l88.53,7.75c2.44-27.58,9.92-53.7,21.56-77.42Z"/>
  <path class="cls-3" d="M758.99,901.58c1.48-16.46,5.97-32.04,12.93-46.2l-79.9-38.97c-11.64,23.72-19.13,49.84-21.56,77.42l88.53,7.75Z"/>
  <path class="cls-2" d="M136.2,913.49c0-22.29,1.03-44.34,2.92-66.14l-88.55-7.75c-2.11,24.35-3.26,48.99-3.26,73.89,0,80.46,11.29,158.28,32.34,231.98l85.47-24.51c-18.82-65.91-28.92-135.51-28.92-207.47Z"/>
  <path class="cls-2" d="M225.09,913.49c0-19.68.91-39.15,2.58-58.4l-88.55-7.75c-1.89,21.8-2.92,43.85-2.92,66.14,0,71.96,10.09,141.56,28.92,207.47l85.47-24.51c-16.6-58.13-25.49-119.51-25.49-182.96Z"/>
  <path class="cls-2" d="M313.98,913.49c0-17.07.79-33.96,2.24-50.65l-88.55-7.75c-1.67,19.25-2.58,38.72-2.58,58.4,0,63.46,8.9,124.83,25.49,182.96l85.47-24.51c-14.37-50.34-22.07-103.5-22.07-158.46Z"/>
  <path class="cls-3" d="M402.87,913.49c0-14.46.67-28.76,1.9-42.9l-88.55-7.75c-1.45,16.69-2.24,33.58-2.24,50.65,0,54.96,7.7,108.11,22.07,158.46l85.47-24.51c-12.14-42.56-18.65-87.49-18.65-133.95Z"/>
  <path class="cls-3" d="M491.76,913.49c0-11.85.55-23.57,1.56-35.16l-88.55-7.75c-1.23,14.14-1.9,28.44-1.9,42.9,0,46.46,6.51,91.39,18.65,133.95l85.47-24.51c-9.91-34.77-15.22-71.49-15.22-109.44Z"/>
  <path class="cls-3" d="M580.65,913.49c0-9.24.48-18.37,1.27-27.4l-88.6-7.75c-1.01,11.59-1.56,23.31-1.56,35.16,0,37.95,5.31,74.67,15.22,109.44l85.56-24.53c-7.69-26.99-11.89-55.45-11.89-84.91Z"/>
  <path class="cls-2" d="M165.11,1120.96l-85.47,24.51c30.13,105.48,80.29,202.49,146.11,286.69l70.05-54.73c-58.87-75.32-103.74-162.11-130.69-256.47Z"/>
  <path class="cls-2" d="M250.58,1096.45l-85.47,24.51c26.95,94.36,71.82,181.14,130.69,256.47l70.05-54.73c-51.93-66.45-91.5-143.01-115.27-226.25Z"/>
  <path class="cls-2" d="M336.05,1071.95l-85.47,24.51c23.76,83.24,63.34,159.8,115.27,226.25l70.05-54.73c-44.98-57.57-79.27-123.91-99.85-196.02Z"/>
  <path class="cls-3" d="M421.52,1047.44l-85.47,24.51c20.58,72.12,54.87,138.45,99.85,196.02l70.05-54.73c-38.04-48.7-67.03-104.81-84.43-165.8Z"/>
  <path class="cls-3" d="M506.98,1022.93l-85.47,24.51c17.4,61,46.39,117.11,84.43,165.8l70.05-54.73c-31.1-39.82-54.8-85.7-69.01-135.58Z"/>
  <path class="cls-3" d="M1195.77,1402.11l47.11,75.39c69.15-43.33,129.78-99,178.76-163.96l-70.99-53.5c-42.44,56.29-94.96,104.53-154.87,142.07Z"/>
  <path class="cls-3" d="M1148.66,1326.72l47.11,75.39c59.92-37.54,112.44-85.78,154.87-142.07l-70.99-53.5c-35.89,47.61-80.31,88.42-130.99,120.18Z"/>
  <path class="cls-3" d="M1101.55,1251.34l47.11,75.39c50.68-31.76,95.1-72.56,130.99-120.18l-70.99-53.5c-29.34,38.94-65.67,72.31-107.1,98.29Z"/>
  <path class="cls-3" d="M1054.42,1175.9l47.13,75.43c41.44-25.97,77.76-59.35,107.1-98.29l-71-53.5c-22.79,30.27-51.04,56.17-83.24,76.36Z"/>
  <path class="cls-3" d="M1007.32,1100.53l47.1,75.38c32.2-20.19,60.44-46.09,83.24-76.36l-70.99-53.49c-16.25,21.59-36.39,40.07-59.35,54.48Z"/>
  <path class="cls-3" d="M960.22,1025.15l47.1,75.38c22.96-14.4,43.1-32.88,59.35-54.48l-70.99-53.49c-9.7,12.92-21.74,23.97-35.46,32.59Z"/>
  <path class="cls-3" d="M1421.63,1313.54l70.99,53.5c57.52-76.28,100.86-163.83,126.18-258.75l-85.88-23.01c-22.33,83.73-60.56,160.97-111.29,228.26Z"/>
  <path class="cls-3" d="M1350.64,1260.04l70.99,53.5c50.74-67.29,88.97-144.53,111.29-228.26l-85.88-23.01c-19.34,72.55-52.45,139.47-96.41,197.77Z"/>
  <path class="cls-3" d="M1279.65,1206.55l70.99,53.5c43.95-58.3,77.07-125.22,96.41-197.77l-85.88-23.01c-16.35,61.37-44.35,117.97-81.52,167.29Z"/>
  <path class="cls-2" d="M1208.66,1153.05l70.99,53.5c37.17-49.32,65.18-105.92,81.52-167.29l-85.88-23.01c-13.36,50.18-36.25,96.47-66.64,136.8Z"/>
  <path class="cls-2" d="M1137.66,1099.55l71,53.5c30.39-40.33,53.28-86.62,66.64-136.8l-85.91-23.02c-10.37,39-28.13,74.97-51.73,106.32Z"/>
  <path class="cls-2" d="M1066.67,1046.05l70.99,53.49c23.61-31.34,41.37-67.32,51.73-106.32l-85.87-23.01c-7.38,27.81-20.03,53.47-36.86,75.83Z"/>
  <path class="cls-2" d="M995.68,992.56l70.99,53.49c16.82-22.36,29.48-48.02,36.86-75.83l-85.87-23.01c-4.39,16.63-11.94,31.98-21.98,45.35Z"/>
  <path class="cls-3" d="M1644.26,913.49c0,67.37-8.88,132.65-25.46,194.8l85.88,23.01c18.54-69.49,28.47-142.48,28.47-217.81,0-29.91-1.58-59.45-4.62-88.55l-88.41,9.29c2.72,26.05,4.14,52.49,4.14,79.26Z"/>
  <path class="cls-3" d="M1555.37,913.49c0,59.41-7.83,116.98-22.45,171.79l85.88,23.01c16.57-62.15,25.46-127.43,25.46-194.8,0-26.77-1.42-53.21-4.14-79.26l-88.41,9.29c2.4,23,3.66,46.33,3.66,69.97Z"/>
  <path class="cls-3" d="M1466.48,913.49c0,51.45-6.78,101.31-19.43,148.78l85.88,23.01c14.61-54.81,22.45-112.38,22.45-171.79,0-23.63-1.25-46.97-3.66-69.97l-88.41,9.29c2.09,19.94,3.18,40.18,3.18,60.67Z"/>
  <path class="cls-3" d="M1377.59,913.49c0,43.49-5.73,85.64-16.42,125.77l85.88,23.01c12.65-47.47,19.43-97.33,19.43-148.78,0-20.49-1.09-40.73-3.18-60.67l-88.41,9.29c1.77,16.89,2.69,34.03,2.69,51.38Z"/>
  <path class="cls-2" d="M1288.7,913.49c0,35.53-4.68,69.97-13.4,102.76l85.88,23.01c10.69-40.13,16.42-82.28,16.42-125.77,0-17.36-.92-34.5-2.69-51.38l-88.41,9.29c1.45,13.83,2.21,27.87,2.21,42.09Z"/>
  <path class="cls-2" d="M1199.81,913.49c0,27.58-3.65,54.29-10.42,79.74l85.91,23.02c8.73-32.79,13.4-67.22,13.4-102.76,0-14.22-.76-28.26-2.21-42.09l-88.42,9.29c1.14,10.78,1.74,21.72,1.74,32.8Z"/>
  <path class="cls-2" d="M1110.92,913.49c0,19.62-2.59,38.63-7.4,56.73l85.87,23.01c6.77-25.45,10.42-52.16,10.42-79.74,0-11.08-.61-22.02-1.74-32.8l-88.4,9.29c.82,7.73,1.26,15.56,1.26,23.51Z"/>
  <path class="cls-2" d="M1022.03,913.49c0,11.66-1.53,22.96-4.37,33.72l85.87,23.01c4.8-18.11,7.4-37.11,7.4-56.73,0-7.94-.44-15.78-1.26-23.51l-88.41,9.29c.5,4.67.77,9.41.77,14.21Z"/>
  <path class="cls-3" d="M1562.03,570.73c41.17,80.53,68.27,169.45,78.1,263.5l88.41-9.29c-10.98-105.15-41.27-204.55-87.29-294.58l-79.22,40.36Z"/>
  <path class="cls-3" d="M1551.72,843.52l88.41-9.29c-9.83-94.06-36.92-182.97-78.1-263.5l-79.22,40.36c36.32,71.04,60.23,149.47,68.91,232.43Z"/>
  <path class="cls-2" d="M1463.31,852.81l88.41-9.29c-8.67-82.97-32.58-161.4-68.91-232.43l-79.22,40.36c31.47,61.54,52.19,129.49,59.72,201.36Z"/>
  <path class="cls-2" d="M1374.9,862.11l88.41-9.29c-7.52-71.88-28.24-139.82-59.72-201.36l-79.22,40.36c26.63,52.04,44.15,109.5,50.52,170.29Z"/>
  <path class="cls-2" d="M1286.49,871.4l88.41-9.29c-6.37-60.79-23.9-118.25-50.52-170.29l-79.22,40.36c21.78,42.54,36.12,89.52,41.33,139.22Z"/>
  <path class="cls-1" d="M1198.07,880.69l88.42-9.29c-5.22-49.7-19.56-96.67-41.33-139.22l-79.3,40.4c16.93,33.05,28.14,69.5,32.21,108.11Z"/>
  <path class="cls-1" d="M1109.66,889.98l88.4-9.29c-4.07-38.61-15.28-75.06-32.21-108.11l-79.2,40.35c12.08,23.55,20.09,49.53,23,77.05Z"/>
  <path class="cls-1" d="M1021.26,899.28l88.41-9.29c-2.91-27.52-10.92-53.5-23-77.05l-79.2,40.35c7.23,14.05,12.03,29.56,13.79,45.99Z"/>
  <path class="cls-2" d="M1562.03,570.73l79.22-40.36c-47.19-92.32-110.92-174.77-187.26-243.49l-59.48,66.06c68.29,61.47,125.3,135.22,167.52,217.8Z"/>
  <path class="cls-2" d="M1394.51,352.93l-59.48,66.06c60.24,54.22,110.53,119.27,147.78,192.1l79.22-40.36c-42.22-82.58-99.23-156.33-167.52-217.8Z"/>
  <path class="cls-2" d="M1403.59,651.45l79.22-40.36c-37.24-72.84-87.54-137.88-147.78-192.1l-59.48,66.06c52.19,46.97,95.77,103.31,128.04,166.41Z"/>
  <path class="cls-1" d="M1324.37,691.82l79.22-40.36c-32.27-63.1-75.85-119.44-128.04-166.41l-59.48,66.06c44.14,39.71,81,87.36,108.3,140.72Z"/>
  <path class="cls-1" d="M1245.16,732.18l79.22-40.36c-27.3-53.36-64.16-101-108.3-140.72l-59.48,66.06c36.09,32.46,66.23,71.41,88.56,115.02Z"/>
  <path class="cls-1" d="M1165.86,772.58l79.3-40.4c-22.33-43.62-52.47-82.56-88.56-115.02l-59.49,66.07c28.04,25.21,51.4,55.49,68.75,89.36Z"/>
  <path class="cls-1" d="M1086.66,812.94l79.2-40.35c-17.35-33.87-40.71-64.15-68.75-89.36l-59.47,66.05c19.99,17.96,36.65,39.52,49.03,63.66Z"/>
  <path class="cls-3" d="M1007.47,853.29l79.2-40.35c-12.38-24.13-29.04-45.7-49.03-63.66l-59.48,66.05c11.94,10.71,21.9,23.56,29.31,37.96Z"/>
  <path class="cls-2" d="M1394.51,352.93l59.48-66.06c-76.03-68.45-164.59-123.24-261.82-160.55l-31.86,83c86.97,33.38,166.19,82.38,234.2,143.61Z"/>
  <path class="cls-2" d="M1335.03,418.99l59.48-66.06c-68.01-61.23-147.23-110.23-234.2-143.61l-31.86,83c76.71,29.44,146.59,72.66,206.59,126.66Z"/>
  <path class="cls-2" d="M1096.58,375.33c66.46,25.5,126.99,62.94,178.97,109.71l59.48-66.06c-60-54-129.87-97.22-206.59-126.66l-31.86,83Z"/>
  <path class="cls-1" d="M1216.08,551.1l59.48-66.06c-51.98-46.78-112.51-84.21-178.97-109.71l-31.86,83c56.2,21.56,107.4,53.21,151.35,92.77Z"/>
  <path class="cls-1" d="M1156.6,617.15l59.48-66.06c-43.96-39.55-95.15-71.21-151.35-92.77l-31.86,83c45.95,17.62,87.8,43.49,123.74,75.82Z"/>
  <path class="cls-1" d="M1097.11,683.23l59.49-66.07c-35.94-32.33-77.79-58.2-123.74-75.82l-31.88,83.06c35.69,13.68,68.21,33.73,96.13,58.84Z"/>
  <path class="cls-3" d="M1037.64,749.28l59.47-66.05c-27.92-25.1-60.44-45.15-96.13-58.84l-31.86,82.99c25.43,9.74,48.61,24.02,68.51,41.9Z"/>
  <path class="cls-2" d="M978.16,815.33l59.48-66.05c-19.9-17.88-43.08-32.16-68.51-41.9l-31.86,82.99c15.18,5.8,29.01,14.31,40.89,24.97Z"/>
  <path class="cls-1" d="M890.23,159.46c95.18,0,186.22,17.68,270.08,49.87l31.86-83c-93.75-35.98-195.53-55.75-301.94-55.75-.02,0-.04,0-.06,0v88.89s.04,0,.06,0Z"/>
  <path class="cls-1" d="M890.23,248.35c83.95,0,164.25,15.6,238.21,43.98l31.86-83c-83.85-32.18-174.89-49.87-270.08-49.87-.02,0-.04,0-.06,0v88.89s.04,0,.06,0Z"/>
  <path class="cls-1" d="M890.23,337.24c72.72,0,142.28,13.51,206.35,38.09l31.86-83c-73.96-28.38-154.26-43.98-238.21-43.98-.02,0-.04,0-.06,0v88.89s.04,0,.06,0Z"/>
  <path class="cls-1" d="M890.17,337.24v88.89s.04,0,.06,0c61.49,0,120.31,11.42,174.49,32.2l31.86-83c-64.07-24.58-133.63-38.09-206.35-38.09-.02,0-.04,0-.06,0Z"/>
  <path class="cls-1" d="M890.23,515.02c50.26,0,98.34,9.33,142.63,26.32l31.86-83c-54.18-20.78-113-32.2-174.49-32.2-.02,0-.04,0-.06,0v88.89s.04,0,.06,0Z"/>
  <path class="cls-3" d="M890.23,603.91c39.04,0,76.35,7.3,110.75,20.48l31.88-83.06c-44.29-16.98-92.37-26.32-142.63-26.32-.02,0-.04,0-.06,0v88.89s.04,0,.06,0Z"/>
  <path class="cls-2" d="M890.23,692.8c27.81,0,54.39,5.19,78.89,14.58l31.86-82.99c-34.4-13.19-71.71-20.48-110.75-20.48-.02,0-.04,0-.06,0v88.89s.04,0,.06,0Z"/>
  <path class="cls-3" d="M890.23,781.69c16.58,0,32.42,3.09,47.04,8.68l31.86-82.99c-24.5-9.39-51.08-14.58-78.89-14.58-.02,0-.04,0-.06,0v88.89s.04,0,.06,0Z"/>
</svg>